<svg width="0" height="0" class="hidden">
  <symbol xmlns="http://www.w3.org/2000/svg" xml:space="preserve" id="bin" viewBox="0 0 128 128">
    <path fill="#3B97D3" d="M94.2 40 90 108.1c-.1 2.1-1.9 3.9-4 3.9H42c-2.1 0-3.9-1.8-4-3.9L33.8 40h-4l4.2 68.4c.3 4.2 3.8 7.6 8 7.6h44c4.2 0 7.7-3.4 8-7.6L98.2 40h-4zM102 22H26c-2.2 0-4 1.8-4 4v8c0 2.2 1.8 4 4 4h76c2.2 0 4-1.8 4-4v-8c0-2.2-1.8-4-4-4zm0 12H26v-8h76v8z"></path>
    <path fill="#2C3E50" d="M65 103.7c-.6 0-1-.4-1-1V45c0-.6.4-1 1-1s1 .4 1 1v57.7c0 .5-.4 1-1 1zM79.8 103.7c-.6 0-1-.5-1-1L81 45c0-.6.5-1 1-1 .6 0 1 .5 1 1l-2.2 57.7c0 .5-.4 1-1 1zM49.7 103.7c-.5 0-1-.4-1-1L46.2 45c0-.6.4-1 1-1 .5 0 1 .4 1 1l2.5 57.7c0 .5-.4.9-1 1z"></path>
    <path fill="#3B97D3" d="M53 20v-2c0-1.1.9-2 2-2h20c1.1 0 2 .9 2 2v2h4v-2c0-3.3-2.7-6-6-6H55c-3.3 0-6 2.7-6 6v2h4z"></path>
  </symbol>
  <symbol xmlns="http://www.w3.org/2000/svg" id="edit" viewBox="0 0 24 24">
    <path d="M3.5,24h15A3.51,3.51,0,0,0,22,20.487V12.95a1,1,0,0,0-2,0v7.537A1.508,1.508,0,0,1,18.5,22H3.5A1.508,1.508,0,0,1,2,20.487V5.513A1.508,1.508,0,0,1,3.5,4H11a1,1,0,0,0,0-2H3.5A3.51,3.51,0,0,0,0,5.513V20.487A3.51,3.51,0,0,0,3.5,24Z"></path>
    <path d="M9.455,10.544l-.789,3.614a1,1,0,0,0,.271.921,1.038,1.038,0,0,0,.92.269l3.606-.791a1,1,0,0,0,.494-.271l9.114-9.114a3,3,0,0,0,0-4.243,3.07,3.07,0,0,0-4.242,0l-9.1,9.123A1,1,0,0,0,9.455,10.544Zm10.788-8.2a1.022,1.022,0,0,1,1.414,0,1.009,1.009,0,0,1,0,1.413l-.707.707L19.536,3.05Zm-8.9,8.914,6.774-6.791,1.4,1.407-6.777,6.793-1.795.394Z"></path>
  </symbol>
  <symbol xmlns="http://www.w3.org/2000/svg" enable-background="new 0 0 64 64" id="timeline" viewBox="0 0 64 64">
    <path fill="#aad7fd" d="M46,5v52c0,2.76-2.24,5-5,5H16V50c0-1.1-0.9-2-2-2H2V5c0-2.76,2.24-5,5-5h34C43.76,0,46,2.24,46,5z"></path>
    <path fill="#48a1ff" d="M14,48c1.105,0,2,0.895,2,2v12c-0.53,0-1.04-0.21-1.41-0.59l-12-12C2.21,49.04,2,48.53,2,48H14z"></path>
    <path fill="#f2f2fd" d="M39 16H24c-1.104 0-2-.896-2-2s.896-2 2-2h15c1.104 0 2 .896 2 2S40.104 16 39 16zM29 28h-5c-1.104 0-2-.896-2-2s.896-2 2-2h5c1.104 0 2 .896 2 2S30.104 28 29 28z"></path>
    <path fill="#2c39fd" d="M12 40.031c-.512 0-1.024-.195-1.414-.586l-2-2c-.781-.781-.781-2.047 0-2.828.78-.781 2.048-.781 2.828 0L12 35.203l2.586-2.585c.78-.781 2.048-.781 2.828 0 .781.781.781 2.047 0 2.828l-4 4C13.024 39.836 12.512 40.031 12 40.031zM12 28.031c-.512 0-1.024-.195-1.414-.586l-2-2c-.781-.781-.781-2.047 0-2.828.78-.781 2.048-.781 2.828 0L12 23.203l2.586-2.585c.78-.781 2.048-.781 2.828 0 .781.781.781 2.047 0 2.828l-4 4C13.024 27.836 12.512 28.031 12 28.031zM12 16.031c-.512 0-1.024-.195-1.414-.586l-2-2c-.781-.781-.781-2.047 0-2.828.78-.781 2.048-.781 2.828 0L12 11.203l2.586-2.585c.78-.781 2.048-.781 2.828 0 .781.781.781 2.047 0 2.828l-4 4C13.024 15.836 12.512 16.031 12 16.031z"></path>
    <circle cx="44" cy="45" r="19" fill="#2c39fd"></circle>
    <path fill="#f2f2fd" d="M39,53c-0.512,0-1.024-0.195-1.414-0.586c-0.781-0.781-0.781-2.047,0-2.828L42,45.171V36c0-1.104,0.896-2,2-2
			s2,0.896,2,2v10c0,0.53-0.211,1.039-0.586,1.414l-5,5C40.024,52.805,39.512,53,39,53z"></path>
  </symbol>
  <symbol version="1" xmlns="http://www.w3.org/2000/svg" enable-background="new 0 0 48 48" viewBox="0 0 48 48" id="todo-list-svgrepo-com">
    <g fill="#3F51B5">
      <polygon points="17.8,18.1 10.4,25.4 6.2,21.3 4,23.5 10.4,29.9 20,20.3"></polygon>
      <polygon points="17.8,5.1 10.4,12.4 6.2,8.3 4,10.5 10.4,16.9 20,7.3"></polygon>
      <polygon points="17.8,31.1 10.4,38.4 6.2,34.3 4,36.5 10.4,42.9 20,33.3"></polygon>
    </g>
    <g fill="#90CAF9">
      <rect x="24" y="22" width="20" height="4"></rect>
      <rect x="24" y="9" width="20" height="4"></rect>
      <rect x="24" y="35" width="20" height="4"></rect>
    </g>
  </symbol>
</svg>